PathFileType	3	(X/Y/Z)	C:\Users\koon_\Desktop\
DataRate	CameraRate	NumFrames	NumMarkers	Units	OrigDataRate	OrigDataStartFrame	OrigNumFrames
100.0	100.0	7	27	mm	100.0	1000	3999	
Frame#	Time	get:LFHD			get:RFHD			get:LBHD			get:RBHD			get:C7			get:T10			get:CLAV			get:STRN			get:RBAK			get:LSHO			get:LUPA			get:LELB			get:LFRA			get:LWRA			get:LWRB			get:LFIN			get:RSHO			get:RUPA			get:RELB			get:RFRA			get:RWRA			get:RWRB			get:RFIN			get:LASI			get:RASI			get:LPSI			get:RPSI			
		X1	Y1	Z1	X2	Y2	Z2	X3	Y3	Z3	X4	Y4	Z4	X5	Y5	Z5	X6	Y6	Z6	X7	Y7	Z7	X8	Y8	Z8	X9	Y9	Z9	X10	Y10	Z10	X11	Y11	Z11	X12	Y12	Z12	X13	Y13	Z13	X14	Y14	Z14	X15	Y15	Z15	X16	Y16	Z16	X17	Y17	Z17	X18	Y18	Z18	X19	Y19	Z19	X20	Y20	Z20	X21	Y21	Z21	X22	Y22	Z22	X23	Y23	Z23	X24	Y24	Z24	X25	Y25	Z25	X26	Y26	Z26	X27	Y27	Z27	
1000	9.99	138.54861	1565.1797	-54.311951	-13.569293	1549.2144	-19.999407	105.47935	1564.4268	-175.29723	-21.356947	1563.0647	-164.42052	7.7270284	1381.5864	-193.32805	-36.844582	1133.0626	-252.06619	81.917038	1282.5123	-39.239948	84.789513	1095.9926	-21.468159	-92.681801	1326.9276	-183.33504	189.84157	1350.2339	-190.84056	233.04697	1209.0342	-246.21231	223.73438	1054.9156	-283.68683	246.84015	1137.855	-194.80302	259.07248	1180.6471	-111.20863	309.74219	1134.2767	-107.98232	335.55133	1200.4962	-43.201862	-85.46888	1369.2074	-45.826069	-158.54991	1177.3282	35.062946	-188.73431	1066.5138	35.31189	-123.34304	1134.0769	77.790665	8.5570831	1183.1693	131.04213	-10.68075	1133.2963	180.45555	36.905807	1210.4268	208.25914	151.1804	925.91565	-113.86387	-118.0681	914.99774	-37.064774	12.358171	962.77344	-282.98401	-92.380096	953.56207	-251.89793
1001	10	136.37003	1565.2072	-53.073238	-16.089169	1549.5392	-20.260393	104.48978	1564.468	-174.40384	-22.378422	1563.376	-164.88014	7.4545722	1381.2307	-193.45673	-35.368805	1132.6625	-252.66853	78.938568	1282.7534	-37.954826	82.087395	1096.0919	-19.948099	-92.653046	1326.8052	-185.81583	189.58047	1350.515	-187.75272	234.79321	1209.7573	-242.31702	227.58292	1055.6411	-279.7677	248.26555	1138.6981	-190.37544	258.09995	1181.8613	-106.83075	308.94247	1135.6335	-102.22508	332.91727	1202.11	-37.046627	-88.549202	1369.0564	-47.947445	-163.00096	1176.3636	30.133852	-192.98515	1065.4023	29.034452	-129.53929	1133.7911	76.917824	1.3353356	1182.2883	129.97435	-18.756805	1132.139	178.46243	27.925259	1209.29	207.95709	150.73221	925.69281	-111.90683	-119.34201	914.91766	-38.171928	13.761903	962.57996	-282.58853	-91.452385	953.39777	-252.61276
1002	10.01	134.26956	1565.2813	-51.849895	-18.581959	1549.8328	-20.450478	103.57286	1564.5695	-173.40793	-23.46652	1563.6648	-165.07346	7.3465886	1381.1938	-193.69379	-33.965965	1132.2972	-253.41147	75.979248	1283.0068	-36.881409	79.248505	1096.2343	-18.642391	-92.615036	1326.6418	-188.19455	189.35419	1350.7573	-184.68544	236.44646	1210.4921	-238.30107	231.35478	1056.2319	-275.50861	249.78893	1139.8684	-186.01941	258.34467	1183.0194	-102.91528	308.29224	1137.0994	-96.402641	330.26492	1203.679	-30.7085	-91.475845	1368.9215	-50.117012	-167.1248	1175.4802	25.396675	-196.80238	1064.5475	22.487114	-134.22862	1132.2631	69.010498	-4.7359366	1181.5654	128.94376	-26.455286	1131.1603	176.52739	18.966806	1208.3569	207.70969	150.22031	925.4765	-110.06506	-120.6405	914.8811	-39.292873	15.173118	962.39471	-282.15906	-90.498184	953.18701	-253.23105
1003	10.02	132.17583	1565.3625	-50.607292	-20.991983	1550.0806	-20.677429	102.49653	1564.6975	-172.5092	-24.613691	1563.9258	-165.23918	7.3287306	1381.2036	-193.91451	-32.493874	1131.9393	-253.95772	72.95488	1283.2139	-35.775124	76.271103	1096.4023	-17.20336	-92.543266	1326.6531	-190.58977	189.10909	1350.9664	-181.60191	237.88101	1211.0787	-234.12418	235.07468	1056.7614	-271.06226	250.92256	1140.7095	-181.35883	257.80417	1184.3218	-98.042175	307.65103	1138.5695	-90.743332	327.55527	1205.3198	-24.433599	-94.325829	1368.8175	-52.342175	-170.87782	1174.7369	20.850334	-200.39928	1063.6335	16.391209	-138.90372	1131.4364	65.146713	-11.534482	1180.8175	127.10379	-33.867359	1130.2648	174.46307	10.836753	1207.3756	206.76891	149.7216	925.3208	-108.16476	-121.927	914.93835	-40.365967	16.463888	962.15747	-281.75861	-89.506607	953.1543	-254.04361
1004	10.03	130.08191	1565.4338	-49.483356	-23.333765	1550.2931	-20.798574	101.44125	1564.8019	-171.62178	-25.705378	1564.0912	-165.35715	7.3999963	1381.2001	-194.12155	-30.990913	1131.6075	-254.54515	70.041763	1283.4233	-34.618401	73.323792	1096.5317	-15.842106	-92.418411	1326.3643	-192.73183	188.84146	1351.1528	-178.48282	239.25632	1211.579	-229.88338	238.58524	1057.2548	-266.47699	251.89743	1141.4709	-176.57646	256.19983	1185.2811	-92.828239	307.03638	1140.0695	-84.951042	324.83331	1206.9829	-18.114601	-97.124016	1368.6793	-54.642246	-174.41008	1173.896	16.464279	-203.55975	1062.8092	10.578105	-143.18439	1130.6067	60.649742	-17.341364	1179.9385	125.54034	-41.006134	1129.472	172.51144	2.7420752	1206.5487	204.75414	149.14941	925.11517	-106.24403	-123.27384	915.00836	-41.44408	17.832676	962.02216	-281.35672	-88.590378	953.11707	-254.76122
1005	10.04	128.04889	1565.5065	-48.344452	-25.676596	1550.4636	-20.97646	100.40786	1564.8118	-170.67699	-26.748327	1564.2872	-165.98099	7.4984236	1381.1749	-194.27713	-29.485758	1131.297	-255.07802	67.137901	1283.5781	-33.677193	70.433525	1096.615	-14.619638	-92.131317	1325.7335	-194.45917	188.63158	1351.307	-175.28047	240.5368	1211.9368	-225.38339	241.94963	1057.6641	-261.67865	252.76825	1142.1692	-171.66737	256.0737	1186.0679	-88.673134	306.37732	1141.4646	-79.114304	322.40955	1208.5613	-12.117736	-99.789284	1368.4867	-56.958256	-177.66298	1173.2117	12.502327	-206.53668	1062.0028	4.9307313	-147.18263	1129.7477	56.276428	-23.078007	1179.1343	123.95141	-47.785202	1128.7378	170.60097	-5.2907648	1205.9269	203.66603	148.45909	924.94623	-104.33894	-124.59612	915.13654	-42.561943	19.121319	961.93597	-280.99628	-87.625534	953.06085	-255.48006
1006	10.05	125.94875	1565.5734	-47.255329	-27.99024	1550.6183	-21.202576	99.369637	1564.746	-169.80849	-27.907717	1564.2579	-165.99258	7.603106	1381.1689	-194.50092	-27.907442	1131.0009	-255.56155	64.231552	1283.6851	-32.711819	67.518959	1096.7008	-13.418178	-91.846077	1325.5183	-196.61072	188.36824	1351.4064	-172.0694	241.87216	1212.3104	-220.68819	245.17154	1058.0197	-256.71265	253.53148	1142.7404	-166.60204	255.55069	1186.9126	-84.040367	305.72745	1142.6556	-73.169571	319.57874	1209.9178	-5.4978142	-102.25404	1368.2305	-59.295155	-180.74718	1172.4294	8.9629755	-209.24133	1061.1447	-0.4592019	-151.02037	1128.8379	52.050621	-28.569195	1178.3917	122.59026	-54.319725	1128.1605	168.86063	-13.069202	1205.3192	203.43291	147.77229	924.77118	-102.383	-125.86126	915.32031	-43.619793	20.449451	961.81958	-280.54565	-86.690536	953.1153	-256.1734
